<svg id="Layer_1" data-name="Layer 1" xmlns="http://www.w3.org/2000/svg" viewBox="0 0 372 517"><defs><style>.cls-1{fill:#fff;stroke:#231f20;stroke-miterlimit:10;stroke-width:15px;}.cls-2{font-size:77px;font-family:Georgia;}.cls-2,.cls-3{fill:#231f20;}</style></defs><rect class="cls-1" x="7.5" y="7.5" width="357" height="502" rx="62.21"/><text class="cls-2" transform="translate(51.93 108.5)">10</text><text class="cls-2" transform="translate(332.36 408.84) rotate(180)">10</text><path class="cls-3" d="M94.86,160.76a21.64,21.64,0,0,0,4.47,9.82,22.24,22.24,0,0,0,13,7.63H77.42a21.43,21.43,0,0,0,13.27-7.63A20.64,20.64,0,0,0,94.86,160.76Z"/><path class="cls-3" d="M113.32,145.25,94.8,123.85,76.53,145.34a13,13,0,1,0,18.35,18.35,13.39,13.39,0,0,0,17.91,1C118.31,160,118.86,150.91,113.32,145.25Z"/><path class="cls-3" d="M155.79,178.78a13.05,13.05,0,0,0,2.69,5.92,13.43,13.43,0,0,0,7.83,4.6H145.26a12.89,12.89,0,0,0,8-4.6A12.54,12.54,0,0,0,155.79,178.78Z"/><path class="cls-3" d="M166.92,169.42l-11.17-12.91-11,13a7.83,7.83,0,1,0,11.07,11.06,7.87,7.87,0,1,0,11.12-11.12Z"/><path class="cls-3" d="M218.89,178.78a13.1,13.1,0,0,0,2.7,5.92,13.41,13.41,0,0,0,7.83,4.6h-21a12.89,12.89,0,0,0,8-4.6A12.4,12.4,0,0,0,218.89,178.78Z"/><path class="cls-3" d="M230,169.42l-11.17-12.91-11,13a7.83,7.83,0,1,0,11.06,11.06A7.87,7.87,0,1,0,230,169.42Z"/><path class="cls-3" d="M188.64,209.6a13.1,13.1,0,0,0,2.7,5.92,13.41,13.41,0,0,0,7.83,4.6h-21a12.85,12.85,0,0,0,8-4.6A12.33,12.33,0,0,0,188.64,209.6Z"/><path class="cls-3" d="M199.78,200.24l-11.17-12.91-11,13a7.84,7.84,0,1,0,11.07,11.07,7.87,7.87,0,1,0,11.13-11.12Z"/><path class="cls-3" d="M188.68,320.29a13,13,0,0,1,2.69-5.92,13.4,13.4,0,0,1,7.83-4.6h-21a12.84,12.84,0,0,1,8,4.6A12.54,12.54,0,0,1,188.68,320.29Z"/><path class="cls-3" d="M199.81,329.65l-11.17,12.91-11-13a7.84,7.84,0,1,1,11.07-11.07,7.87,7.87,0,1,1,11.12,11.13Z"/><path class="cls-3" d="M155.82,242.39a13.1,13.1,0,0,0,2.7,5.92,13.35,13.35,0,0,0,7.83,4.6h-21a12.85,12.85,0,0,0,8-4.6A12.33,12.33,0,0,0,155.82,242.39Z"/><path class="cls-3" d="M167,233l-11.17-12.91-11,13a7.84,7.84,0,1,0,11.07,11.07A7.87,7.87,0,1,0,167,233Z"/><path class="cls-3" d="M155.84,350.65a13.05,13.05,0,0,1,2.69-5.92,13.45,13.45,0,0,1,7.84-4.6H145.32a12.85,12.85,0,0,1,8,4.6A12.44,12.44,0,0,1,155.84,350.65Z"/><path class="cls-3" d="M167,360,155.8,372.92l-11-13a7.84,7.84,0,1,1,11.07-11.07A7.87,7.87,0,1,1,167,360Z"/><path class="cls-3" d="M155.88,290.3a13.08,13.08,0,0,1,2.69-5.93,13.43,13.43,0,0,1,7.83-4.6H145.35a12.94,12.94,0,0,1,8,4.6A12.53,12.53,0,0,1,155.88,290.3Z"/><path class="cls-3" d="M167,299.65l-11.17,12.92-11-13a7.84,7.84,0,1,1,11.07-11.07A7.87,7.87,0,1,1,167,299.65Z"/><path class="cls-3" d="M290.8,356.14a21.64,21.64,0,0,1,4.47-9.82,22.24,22.24,0,0,1,13-7.63H273.36a21.46,21.46,0,0,1,13.27,7.63A20.64,20.64,0,0,1,290.8,356.14Z"/><path class="cls-3" d="M309.26,371.65l-18.52,21.4-18.27-21.49a13,13,0,1,1,18.35-18.35,13.39,13.39,0,0,1,17.91-1C314.25,356.89,314.8,366,309.26,371.65Z"/><path class="cls-3" d="M218.93,242.39a13.05,13.05,0,0,0,2.69,5.92,13.4,13.4,0,0,0,7.83,4.6h-21a12.85,12.85,0,0,0,8-4.6A12.54,12.54,0,0,0,218.93,242.39Z"/><path class="cls-3" d="M230.06,233l-11.17-12.91-11,13a7.84,7.84,0,1,0,11.07,11.07A7.87,7.87,0,1,0,230.06,233Z"/><path class="cls-3" d="M219,350.65a13.05,13.05,0,0,1,2.69-5.92,13.46,13.46,0,0,1,7.83-4.6H208.42a12.87,12.87,0,0,1,8,4.6A12.54,12.54,0,0,1,219,350.65Z"/><path class="cls-3" d="M230.08,360l-11.17,12.91-11-13A7.84,7.84,0,1,1,219,348.89,7.87,7.87,0,1,1,230.08,360Z"/><path class="cls-3" d="M219,290.3a13.12,13.12,0,0,1,2.7-5.93,13.41,13.41,0,0,1,7.83-4.6h-21a12.94,12.94,0,0,1,8,4.6A12.38,12.38,0,0,1,219,290.3Z"/><path class="cls-3" d="M230.12,299.65,219,312.57l-11-13A7.84,7.84,0,1,1,219,288.53a7.87,7.87,0,1,1,11.12,11.12Z"/></svg>