<svg id="Layer_1" data-name="Layer 1" xmlns="http://www.w3.org/2000/svg" viewBox="0 0 372 517"><defs><style>.cls-1{fill:#fff;stroke:#231f20;stroke-miterlimit:10;stroke-width:15px;}.cls-2{font-size:77px;font-family:Georgia;}.cls-2,.cls-3{fill:#231f20;}</style></defs><rect class="cls-1" x="7.5" y="7.5" width="357" height="502" rx="62.21"/><text class="cls-2" transform="translate(56.33 96.69)">10</text><text class="cls-2" transform="translate(330.24 425.28) rotate(180)">10</text><circle class="cls-3" cx="82.28" cy="153.74" r="13.9"/><circle class="cls-3" cx="95.17" cy="135.43" r="13.9"/><circle class="cls-3" cx="107.44" cy="153.74" r="13.9"/><path class="cls-3" d="M94.83,158.91a21.59,21.59,0,0,0,4.46,9.82,22.24,22.24,0,0,0,13,7.63H77.38a21.43,21.43,0,0,0,13.27-7.63A20.68,20.68,0,0,0,94.83,158.91Z"/><circle class="cls-3" cx="144.12" cy="172.75" r="8.53"/><circle class="cls-3" cx="152.03" cy="161.51" r="8.53"/><circle class="cls-3" cx="159.57" cy="172.75" r="8.53"/><path class="cls-3" d="M151.82,175.93a13.3,13.3,0,0,0,2.74,6,13.66,13.66,0,0,0,8,4.68H141.11a13.17,13.17,0,0,0,8.15-4.68A12.75,12.75,0,0,0,151.82,175.93Z"/><circle class="cls-3" cx="145.09" cy="230.28" r="8.53"/><circle class="cls-3" cx="153" cy="219.04" r="8.53"/><circle class="cls-3" cx="160.54" cy="230.28" r="8.53"/><path class="cls-3" d="M152.79,233.46a13.46,13.46,0,0,0,2.74,6,13.68,13.68,0,0,0,8,4.68H142.08a13.17,13.17,0,0,0,8.15-4.68A12.79,12.79,0,0,0,152.79,233.46Z"/><circle class="cls-3" cx="184.3" cy="319.91" r="8.53"/><circle class="cls-3" cx="192.21" cy="331.14" r="8.53"/><circle class="cls-3" cx="199.74" cy="319.91" r="8.53"/><path class="cls-3" d="M192,316.73a13.15,13.15,0,0,1,2.74-6,13.63,13.63,0,0,1,8-4.68H181.29a13,13,0,0,1,8.14,4.68A12.65,12.65,0,0,1,192,316.73Z"/><circle class="cls-3" cx="185.12" cy="201.29" r="8.53"/><circle class="cls-3" cx="193.03" cy="190.05" r="8.53"/><circle class="cls-3" cx="200.56" cy="201.29" r="8.53"/><path class="cls-3" d="M192.82,204.47a13.19,13.19,0,0,0,2.74,6,13.66,13.66,0,0,0,8,4.68H182.11a13.13,13.13,0,0,0,8.14-4.68A12.65,12.65,0,0,0,192.82,204.47Z"/><circle class="cls-3" cx="144.1" cy="291.08" r="8.53"/><circle class="cls-3" cx="152.01" cy="302.32" r="8.53"/><circle class="cls-3" cx="159.54" cy="291.08" r="8.53"/><path class="cls-3" d="M151.8,287.9a13.19,13.19,0,0,1,2.74-6,13.63,13.63,0,0,1,8-4.68H141.08a13.12,13.12,0,0,1,8.15,4.68A12.68,12.68,0,0,1,151.8,287.9Z"/><circle class="cls-3" cx="143.47" cy="347.22" r="8.53"/><circle class="cls-3" cx="151.38" cy="358.45" r="8.53"/><circle class="cls-3" cx="158.92" cy="347.22" r="8.53"/><path class="cls-3" d="M151.17,344a13.3,13.3,0,0,1,2.75-6,13.58,13.58,0,0,1,8-4.68H140.46a13.06,13.06,0,0,1,8.15,4.68A12.61,12.61,0,0,1,151.17,344Z"/><circle class="cls-3" cx="225.14" cy="172.75" r="8.53"/><circle class="cls-3" cx="233.05" cy="161.51" r="8.53"/><circle class="cls-3" cx="240.59" cy="172.75" r="8.53"/><path class="cls-3" d="M232.84,175.93a13.35,13.35,0,0,0,2.75,6,13.63,13.63,0,0,0,8,4.68H222.13a13.17,13.17,0,0,0,8.15-4.68A12.64,12.64,0,0,0,232.84,175.93Z"/><circle class="cls-3" cx="226.11" cy="230.28" r="8.53"/><circle class="cls-3" cx="234.02" cy="219.04" r="8.53"/><circle class="cls-3" cx="241.56" cy="230.28" r="8.53"/><path class="cls-3" d="M233.82,233.46a13.24,13.24,0,0,0,2.74,6,13.63,13.63,0,0,0,8,4.68H223.1a13.14,13.14,0,0,0,8.15-4.68A12.72,12.72,0,0,0,233.82,233.46Z"/><circle class="cls-3" cx="225.12" cy="291.08" r="8.53"/><circle class="cls-3" cx="233.03" cy="302.32" r="8.53"/><circle class="cls-3" cx="240.57" cy="291.08" r="8.53"/><path class="cls-3" d="M232.82,287.9a13.3,13.3,0,0,1,2.74-6,13.66,13.66,0,0,1,8-4.68H222.11a13.17,13.17,0,0,1,8.15,4.68A12.75,12.75,0,0,1,232.82,287.9Z"/><circle class="cls-3" cx="224.5" cy="347.22" r="8.53"/><circle class="cls-3" cx="232.41" cy="358.45" r="8.53"/><circle class="cls-3" cx="239.94" cy="347.22" r="8.53"/><path class="cls-3" d="M232.2,344a13.15,13.15,0,0,1,2.74-6,13.6,13.6,0,0,1,8-4.68H221.49a13,13,0,0,1,8.14,4.68A12.65,12.65,0,0,1,232.2,344Z"/><circle class="cls-3" cx="277.59" cy="366.9" r="13.9"/><circle class="cls-3" cx="290.47" cy="385.2" r="13.9"/><circle class="cls-3" cx="302.75" cy="366.9" r="13.9"/><path class="cls-3" d="M290.13,361.72a21.73,21.73,0,0,1,4.47-9.82,22.2,22.2,0,0,1,13-7.62H272.69A21.37,21.37,0,0,1,286,351.9,20.64,20.64,0,0,1,290.13,361.72Z"/></svg>