<svg id="Layer_1" data-name="Layer 1" xmlns="http://www.w3.org/2000/svg" viewBox="0 0 372 517"><defs><style>.cls-1{fill:#fff;stroke:#ed1c24;stroke-width:15px;}.cls-1,.cls-2,.cls-3{stroke-miterlimit:10;}.cls-2{font-size:77px;font-family:Georgia;}.cls-2,.cls-3,.cls-4{fill:#ed1c24;}.cls-2,.cls-3{stroke:#ffc40c;}.cls-3{stroke-width:3px;}</style></defs><rect class="cls-1" x="7.5" y="7.5" width="357" height="502" rx="62.21"/><text class="cls-2" transform="translate(70.12 108.5)">1</text><text class="cls-2" transform="translate(310.79 409.49) rotate(180)">1</text><path class="cls-3" d="M239.93,278.11l-48.28,39.28-48-39.51c-14.65-14.09-14.18-37.57-.1-50.39,13.25-12.05,34.91-11.4,48.1,2.39,13.14-13.06,33.86-13.69,46.84-2.65C253,239.51,254.44,263.3,239.93,278.11Z"/><path class="cls-4" d="M114,162.33,91.13,181,68.4,162.22c-6.94-6.67-6.72-17.8,0-23.87,6.27-5.71,16.54-5.4,22.79,1.13,6.23-6.19,16-6.49,22.19-1.26C120.19,144,120.88,155.31,114,162.33Z"/><path class="cls-4" d="M311.38,358.74,288.5,340.12l-22.72,18.73c-6.94,6.67-6.72,17.8,0,23.87a16.49,16.49,0,0,0,22.8-1.13c6.22,6.19,16,6.49,22.19,1.26C317.57,377,318.25,365.76,311.38,358.74Z"/></svg>