<svg id="Layer_1" data-name="Layer 1" xmlns="http://www.w3.org/2000/svg" viewBox="0 0 372 517"><defs><style>.cls-1{fill:#fff;stroke:#231f20;stroke-width:15px;}.cls-1,.cls-2,.cls-4{stroke-miterlimit:10;}.cls-2{font-size:77px;font-family:Georgia;}.cls-2,.cls-3,.cls-4{fill:#231f20;}.cls-2,.cls-4{stroke:#6c99ae;}.cls-4{stroke-width:2px;}</style></defs><rect class="cls-1" x="7.5" y="7.5" width="357" height="502" rx="62.21"/><text class="cls-2" transform="translate(77.42 108.5)">1</text><text class="cls-2" transform="translate(309.74 409.49) rotate(180)">1</text><path class="cls-3" d="M94.86,160.76a21.64,21.64,0,0,0,4.47,9.82,22.24,22.24,0,0,0,13,7.63H77.42a21.43,21.43,0,0,0,13.27-7.63A20.64,20.64,0,0,0,94.86,160.76Z"/><path class="cls-3" d="M113.32,145.25,94.8,123.85,76.53,145.34a13,13,0,1,0,18.35,18.35,13.39,13.39,0,0,0,17.91,1C118.31,160,118.86,150.91,113.32,145.25Z"/><path class="cls-4" d="M186.25,279.76a44.48,44.48,0,0,0,9.19,20.2,45.74,45.74,0,0,0,26.71,15.7h-71.8c3.55-.56,17.43-3.18,27.31-15.7A42.52,42.52,0,0,0,186.25,279.76Z"/><path class="cls-4" d="M224.23,247.85l-38.11-44L148.53,248c-11.53,11.08-11.16,29.55-.08,39.63,10.42,9.49,27.46,9,37.84-1.87,10.33,10.27,26.63,10.76,36.84,2.08C234.49,278.21,235.64,259.5,224.23,247.85Z"/><path class="cls-3" d="M290.8,356.14a21.64,21.64,0,0,1,4.47-9.82,22.24,22.24,0,0,1,13-7.63H273.36a21.46,21.46,0,0,1,13.27,7.63A20.64,20.64,0,0,1,290.8,356.14Z"/><path class="cls-3" d="M309.26,371.65l-18.52,21.4-18.27-21.49a13,13,0,1,1,18.35-18.35,13.39,13.39,0,0,1,17.91-1C314.25,356.89,314.8,366,309.26,371.65Z"/></svg>