<svg id="Layer_1" data-name="Layer 1" xmlns="http://www.w3.org/2000/svg" viewBox="0 0 372 517"><defs><style>.cls-1{fill:#fff;stroke:#231f20;stroke-width:15px;}.cls-1,.cls-2,.cls-4{stroke-miterlimit:10;}.cls-2{font-size:77px;font-family:Georgia;}.cls-2,.cls-3,.cls-4{fill:#231f20;}.cls-2,.cls-4{stroke:#6c99ae;}.cls-4{stroke-width:2px;}</style></defs><rect class="cls-1" x="7.5" y="7.5" width="357" height="502" rx="62.21"/><text class="cls-2" transform="translate(78.45 108.5)">1</text><text class="cls-2" transform="translate(308.9 409.49) rotate(180)">1</text><circle class="cls-3" cx="82.28" cy="153.74" r="13.9"/><circle class="cls-3" cx="95.17" cy="135.43" r="13.9"/><circle class="cls-3" cx="107.44" cy="153.74" r="13.9"/><path class="cls-3" d="M94.83,158.91a21.59,21.59,0,0,0,4.46,9.82,22.24,22.24,0,0,0,13,7.63H77.38a21.43,21.43,0,0,0,13.27-7.63A20.68,20.68,0,0,0,94.83,158.91Z"/><path class="cls-4" d="M185.91,276.23A50.2,50.2,0,0,0,196.27,299c11,13.5,25.68,16.85,30.09,17.68h-80.9c4-.63,19.65-3.57,30.77-17.68A47.77,47.77,0,0,0,185.91,276.23Z"/><circle class="cls-4" cx="186.7" cy="221.8" r="32.22"/><circle class="cls-4" cx="156.83" cy="264.24" r="32.22"/><circle class="cls-4" cx="215.17" cy="264.24" r="32.22"/><circle class="cls-3" cx="277.59" cy="366.9" r="13.9"/><circle class="cls-3" cx="290.47" cy="385.2" r="13.9"/><circle class="cls-3" cx="302.75" cy="366.9" r="13.9"/><path class="cls-3" d="M290.13,361.72a21.73,21.73,0,0,1,4.47-9.82,22.2,22.2,0,0,1,13-7.62H272.69A21.37,21.37,0,0,1,286,351.9,20.64,20.64,0,0,1,290.13,361.72Z"/></svg>