<svg id="Layer_1" data-name="Layer 1" xmlns="http://www.w3.org/2000/svg" viewBox="0 0 372 517"><defs><style>.cls-1{fill:#fff;stroke:#ed1c24;stroke-miterlimit:10;stroke-width:15px;}.cls-2{font-size:77px;font-family:Georgia;}.cls-2,.cls-3{fill:#ed1c24;}</style></defs><rect class="cls-1" x="7.5" y="7.5" width="357" height="502" rx="62.21"/><text class="cls-2" transform="translate(70.12 108.5)">7</text><text class="cls-2" transform="translate(310.79 409.49) rotate(180)">7</text><polygon class="cls-3" points="117.57 170.96 93.81 202.29 70.12 170.69 92.8 136.22 117.57 170.96"/><polygon class="cls-3" points="178.35 142.08 163.56 161.58 148.81 141.91 162.93 120.46 178.35 142.08"/><polygon class="cls-3" points="178.35 270.4 163.56 289.9 148.81 270.23 162.93 248.78 178.35 270.4"/><polygon class="cls-3" points="212 209.7 197.2 229.2 182.46 209.53 196.58 188.08 212 209.7"/><polygon class="cls-3" points="178.35 387.51 163.56 407.01 148.81 387.34 162.93 365.89 178.35 387.51"/><polygon class="cls-3" points="241.54 142.08 226.74 161.58 212 141.91 226.12 120.46 241.54 142.08"/><polygon class="cls-3" points="241.54 270.4 226.74 289.9 212 270.23 226.12 248.78 241.54 270.4"/><polygon class="cls-3" points="241.54 387.51 226.74 407.01 212 387.34 226.12 365.89 241.54 387.51"/><polygon class="cls-3" points="312.88 352.13 289.11 383.46 265.42 351.86 288.11 317.39 312.88 352.13"/></svg>