<svg id="Layer_1" data-name="Layer 1" xmlns="http://www.w3.org/2000/svg" viewBox="0 0 372 517"><defs><style>.cls-1{fill:#fff;stroke:#231f20;stroke-miterlimit:10;stroke-width:15px;}.cls-2{font-size:77px;font-family:Georgia;}.cls-2,.cls-3{fill:#231f20;}</style></defs><rect class="cls-1" x="7.5" y="7.5" width="357" height="502" rx="62.21"/><text class="cls-2" transform="translate(71.76 96.69)">7</text><text class="cls-2" transform="translate(314.18 425.28) rotate(180)">7</text><circle class="cls-3" cx="82.28" cy="153.74" r="13.9"/><circle class="cls-3" cx="95.17" cy="135.43" r="13.9"/><circle class="cls-3" cx="107.44" cy="153.74" r="13.9"/><path class="cls-3" d="M94.83,158.91a21.59,21.59,0,0,0,4.46,9.82,22.24,22.24,0,0,0,13,7.63H77.38a21.43,21.43,0,0,0,13.27-7.63A20.68,20.68,0,0,0,94.83,158.91Z"/><circle class="cls-3" cx="145.58" cy="141.66" r="8.53"/><circle class="cls-3" cx="153.49" cy="130.42" r="8.53"/><circle class="cls-3" cx="161.03" cy="141.66" r="8.53"/><path class="cls-3" d="M153.29,144.83a13.15,13.15,0,0,0,2.74,6,13.57,13.57,0,0,0,8,4.68H142.57a13,13,0,0,0,8.15-4.68A12.65,12.65,0,0,0,153.29,144.83Z"/><circle class="cls-3" cx="185.76" cy="204.78" r="8.53"/><circle class="cls-3" cx="193.67" cy="193.54" r="8.53"/><circle class="cls-3" cx="201.21" cy="204.78" r="8.53"/><path class="cls-3" d="M193.46,208a13.3,13.3,0,0,0,2.75,6,13.57,13.57,0,0,0,8,4.68H182.75A13.06,13.06,0,0,0,190.9,214,12.61,12.61,0,0,0,193.46,208Z"/><circle class="cls-3" cx="145.56" cy="259.98" r="8.53"/><circle class="cls-3" cx="153.47" cy="271.22" r="8.53"/><circle class="cls-3" cx="161.01" cy="259.98" r="8.53"/><path class="cls-3" d="M153.26,256.81a13.37,13.37,0,0,1,2.74-6,13.66,13.66,0,0,1,8-4.69H142.55a13.15,13.15,0,0,1,8.15,4.69A12.71,12.71,0,0,1,153.26,256.81Z"/><circle class="cls-3" cx="223.22" cy="259.98" r="8.53"/><circle class="cls-3" cx="231.13" cy="271.22" r="8.53"/><circle class="cls-3" cx="238.67" cy="259.98" r="8.53"/><path class="cls-3" d="M230.92,256.81a13.15,13.15,0,0,1,2.74-6,13.63,13.63,0,0,1,8-4.69H220.21a13.11,13.11,0,0,1,8.14,4.69A12.65,12.65,0,0,1,230.92,256.81Z"/><circle class="cls-3" cx="145.75" cy="383.27" r="8.53"/><circle class="cls-3" cx="153.66" cy="394.51" r="8.53"/><circle class="cls-3" cx="161.2" cy="383.27" r="8.53"/><path class="cls-3" d="M153.45,380.09a13.17,13.17,0,0,1,2.74-6,13.63,13.63,0,0,1,8-4.69H142.74a13.11,13.11,0,0,1,8.14,4.69A12.66,12.66,0,0,1,153.45,380.09Z"/><circle class="cls-3" cx="277.59" cy="366.9" r="13.9"/><circle class="cls-3" cx="290.47" cy="385.2" r="13.9"/><circle class="cls-3" cx="302.75" cy="366.9" r="13.9"/><path class="cls-3" d="M290.13,361.72a21.73,21.73,0,0,1,4.47-9.82,22.2,22.2,0,0,1,13-7.62H272.69A21.37,21.37,0,0,1,286,351.9,20.64,20.64,0,0,1,290.13,361.72Z"/><circle class="cls-3" cx="223.86" cy="141.88" r="8.53"/><circle class="cls-3" cx="231.77" cy="130.64" r="8.53"/><circle class="cls-3" cx="239.31" cy="141.88" r="8.53"/><path class="cls-3" d="M231.56,145.06a13.35,13.35,0,0,0,2.75,6,13.63,13.63,0,0,0,8,4.68H220.85a13.17,13.17,0,0,0,8.15-4.68A12.54,12.54,0,0,0,231.56,145.06Z"/><circle class="cls-3" cx="224.03" cy="383.5" r="8.53"/><circle class="cls-3" cx="231.94" cy="394.74" r="8.53"/><circle class="cls-3" cx="239.47" cy="383.5" r="8.53"/><path class="cls-3" d="M231.73,380.32a13.19,13.19,0,0,1,2.74-6,13.63,13.63,0,0,1,8-4.68H221a13.08,13.08,0,0,1,8.14,4.68A12.65,12.65,0,0,1,231.73,380.32Z"/></svg>