<svg id="Layer_1" data-name="Layer 1" xmlns="http://www.w3.org/2000/svg" viewBox="0 0 372 517"><defs><style>.cls-1{fill:#fff;stroke:#ed1c24;stroke-miterlimit:10;stroke-width:15px;}.cls-2{font-size:77px;font-family:Georgia;}.cls-2,.cls-3{fill:#ed1c24;}</style></defs><rect class="cls-1" x="7.5" y="7.5" width="357" height="502" rx="62.21"/><text class="cls-2" transform="translate(70.12 108.5)">8</text><text class="cls-2" transform="translate(310.79 409.49) rotate(180)">8</text><path class="cls-3" d="M117.37,162.93,94.5,181.54,71.77,162.82c-6.94-6.68-6.72-17.8,0-23.87,6.27-5.72,16.54-5.41,22.79,1.12,6.23-6.18,16-6.48,22.2-1.25C123.56,144.64,124.25,155.91,117.37,162.93Z"/><path class="cls-3" d="M177.7,143.9l-14,11.39-13.9-11.46a9.86,9.86,0,1,1,13.92-13.92,9.89,9.89,0,1,1,14,14Z"/><path class="cls-3" d="M210.1,209.78l-14,11.39-13.91-11.46a9.86,9.86,0,1,1,13.92-13.92,9.9,9.9,0,1,1,14,14Z"/><path class="cls-3" d="M210.1,333.51l-14,11.39-13.91-11.45a9.86,9.86,0,1,1,13.92-13.92,9.89,9.89,0,1,1,14,14Z"/><path class="cls-3" d="M177.7,275.65,163.7,287l-13.9-11.46a9.85,9.85,0,1,1,13.92-13.91,9.89,9.89,0,1,1,14,14Z"/><path class="cls-3" d="M177.7,391.37l-14,11.4-13.9-11.46a9.86,9.86,0,1,1,13.92-13.92,9.89,9.89,0,1,1,14,14Z"/><path class="cls-3" d="M240.81,143.9l-14,11.39-13.9-11.46a9.86,9.86,0,1,1,13.92-13.92,9.89,9.89,0,1,1,14,14Z"/><path class="cls-3" d="M240.81,275.65l-14,11.39-13.9-11.46a9.85,9.85,0,1,1,13.92-13.91,9.89,9.89,0,1,1,14,14Z"/><path class="cls-3" d="M240.81,391.37l-14,11.4-13.9-11.46a9.86,9.86,0,1,1,13.92-13.92,9.89,9.89,0,1,1,14,14Z"/><path class="cls-3" d="M313.29,356.84l-22.88-18.62L267.69,357c-6.95,6.67-6.72,17.8-.05,23.87,6.28,5.72,16.54,5.41,22.79-1.13,6.23,6.19,16.05,6.49,22.2,1.26C319.47,375.13,320.16,363.86,313.29,356.84Z"/></svg>