<svg id="Layer_1" data-name="Layer 1" xmlns="http://www.w3.org/2000/svg" viewBox="0 0 372 517"><defs><style>.cls-1{fill:#fff;stroke:#231f20;stroke-miterlimit:10;stroke-width:15px;}.cls-2{font-size:77px;font-family:Georgia;}.cls-2,.cls-3{fill:#231f20;}</style></defs><rect class="cls-1" x="7.5" y="7.5" width="357" height="502" rx="62.21"/><text class="cls-2" transform="translate(72.39 109.9)">8</text><text class="cls-2" transform="translate(314.32 408.84) rotate(180)">8</text><path class="cls-3" d="M94.86,160.76a21.64,21.64,0,0,0,4.47,9.82,22.24,22.24,0,0,0,13,7.63H77.42a21.43,21.43,0,0,0,13.27-7.63A20.64,20.64,0,0,0,94.86,160.76Z"/><path class="cls-3" d="M113.32,145.25,94.8,123.85,76.53,145.34a13,13,0,1,0,18.35,18.35,13.39,13.39,0,0,0,17.91,1C118.31,160,118.86,150.91,113.32,145.25Z"/><path class="cls-3" d="M155.79,141.43a13.08,13.08,0,0,0,2.69,5.93,13.43,13.43,0,0,0,7.83,4.6H145.26a12.94,12.94,0,0,0,8-4.6A12.53,12.53,0,0,0,155.79,141.43Z"/><path class="cls-3" d="M166.92,132.08l-11.17-12.92-11,13A7.84,7.84,0,1,0,155.8,143.2a7.87,7.87,0,1,0,11.12-11.12Z"/><path class="cls-3" d="M194.17,202a13.05,13.05,0,0,0,2.7,5.92,13.38,13.38,0,0,0,7.83,4.61h-21a13,13,0,0,0,8-4.61A12.4,12.4,0,0,0,194.17,202Z"/><path class="cls-3" d="M205.31,192.69l-11.17-12.92-11,13a7.83,7.83,0,1,0,11.06,11.07,7.87,7.87,0,1,0,11.13-11.12Z"/><path class="cls-3" d="M194.17,316.43a13.12,13.12,0,0,1,2.7-5.93,13.41,13.41,0,0,1,7.83-4.6h-21a12.94,12.94,0,0,1,8,4.6A12.38,12.38,0,0,1,194.17,316.43Z"/><path class="cls-3" d="M205.31,325.78l-11.17,12.91-11-13a7.83,7.83,0,1,1,11.06-11.07,7.87,7.87,0,1,1,11.13,11.12Z"/><path class="cls-3" d="M155.84,375.92a13.08,13.08,0,0,1,2.69-5.93,13.45,13.45,0,0,1,7.84-4.6H145.32a12.9,12.9,0,0,1,8,4.6A12.42,12.42,0,0,1,155.84,375.92Z"/><path class="cls-3" d="M167,385.27,155.8,398.18l-11-13a7.84,7.84,0,1,1,11.07-11.07A7.87,7.87,0,1,1,167,385.27Z"/><path class="cls-3" d="M155.79,252.63a13.08,13.08,0,0,1,2.69-5.93,13.43,13.43,0,0,1,7.83-4.6H145.26a12.94,12.94,0,0,1,8,4.6A12.53,12.53,0,0,1,155.79,252.63Z"/><path class="cls-3" d="M166.92,262,155.75,274.9l-11-13a7.84,7.84,0,1,1,11.07-11.07A7.87,7.87,0,1,1,166.92,262Z"/><path class="cls-3" d="M234.15,141.43a13.08,13.08,0,0,0,2.69,5.93,13.43,13.43,0,0,0,7.83,4.6h-21a12.94,12.94,0,0,0,8-4.6A12.53,12.53,0,0,0,234.15,141.43Z"/><path class="cls-3" d="M245.28,132.08l-11.17-12.92-11,13a7.84,7.84,0,1,0,11.07,11.07,7.87,7.87,0,1,0,11.12-11.12Z"/><path class="cls-3" d="M234.2,375.92a13,13,0,0,1,2.7-5.93,13.41,13.41,0,0,1,7.83-4.6h-21a12.9,12.9,0,0,1,8,4.6A12.42,12.42,0,0,1,234.2,375.92Z"/><path class="cls-3" d="M245.33,385.27l-11.17,12.91-11-13a7.84,7.84,0,1,1,11.07-11.07,7.87,7.87,0,1,1,11.12,11.12Z"/><path class="cls-3" d="M234.15,252.63a13.08,13.08,0,0,1,2.69-5.93,13.43,13.43,0,0,1,7.83-4.6h-21a12.94,12.94,0,0,1,8,4.6A12.53,12.53,0,0,1,234.15,252.63Z"/><path class="cls-3" d="M245.28,262,234.11,274.9l-11-13a7.84,7.84,0,1,1,11.07-11.07A7.87,7.87,0,1,1,245.28,262Z"/><path class="cls-3" d="M290.8,356.14a21.64,21.64,0,0,1,4.47-9.82,22.24,22.24,0,0,1,13-7.63H273.36a21.46,21.46,0,0,1,13.27,7.63A20.64,20.64,0,0,1,290.8,356.14Z"/><path class="cls-3" d="M309.26,371.65l-18.52,21.4-18.27-21.49a13,13,0,1,1,18.35-18.35,13.39,13.39,0,0,1,17.91-1C314.25,356.89,314.8,366,309.26,371.65Z"/></svg>