<svg id="Layer_1" data-name="Layer 1" xmlns="http://www.w3.org/2000/svg" viewBox="0 0 372 517"><defs><style>.cls-1{fill:#fff;stroke:#ed1c24;stroke-miterlimit:10;stroke-width:15px;}.cls-2{font-size:77px;font-family:Georgia;}.cls-2,.cls-3{fill:#ed1c24;}</style></defs><rect class="cls-1" x="7.5" y="7.5" width="357" height="502" rx="62.21"/><text class="cls-2" transform="translate(70.12 108.5)">9</text><text class="cls-2" transform="translate(310.79 409.49) rotate(180)">9</text><polygon class="cls-3" points="117.57 170.96 93.81 202.29 70.12 170.69 92.8 136.22 117.57 170.96"/><polygon class="cls-3" points="178.35 183.21 163.56 202.71 148.81 183.04 162.93 161.58 178.35 183.21"/><polygon class="cls-3" points="207.89 259.56 193.1 279.06 178.35 259.39 192.47 237.94 207.89 259.56"/><polygon class="cls-3" points="178.35 234.8 163.56 254.3 148.81 234.63 162.93 213.18 178.35 234.8"/><polygon class="cls-3" points="178.35 284.32 163.56 303.82 148.81 284.15 162.93 262.7 178.35 284.32"/><polygon class="cls-3" points="178.35 335.92 163.56 355.42 148.81 335.75 162.93 314.29 178.35 335.92"/><polygon class="cls-3" points="236.42 183.21 221.63 202.71 206.88 183.04 221.01 161.58 236.42 183.21"/><polygon class="cls-3" points="236.42 234.8 221.63 254.3 206.88 234.63 221.01 213.18 236.42 234.8"/><polygon class="cls-3" points="236.42 284.32 221.63 303.82 206.88 284.15 221.01 262.7 236.42 284.32"/><polygon class="cls-3" points="236.42 335.92 221.63 355.42 206.88 335.75 221.01 314.29 236.42 335.92"/><polygon class="cls-3" points="312.88 352.13 289.11 383.46 265.42 351.86 288.11 317.39 312.88 352.13"/></svg>