<svg id="Layer_1" data-name="Layer 1" xmlns="http://www.w3.org/2000/svg" viewBox="0 0 372 517"><defs><style>.cls-1{fill:#fff;stroke:#ed1c24;stroke-width:15px;}.cls-1,.cls-2,.cls-4{stroke-miterlimit:10;}.cls-2{font-size:77px;font-family:Georgia;}.cls-2,.cls-3,.cls-4{fill:#ed1c24;}.cls-2,.cls-4{stroke:#ffc40c;}</style></defs><rect class="cls-1" x="7.5" y="7.5" width="357" height="502" rx="62.21"/><text class="cls-2" transform="translate(65.87 108.5)">D</text><text class="cls-2" transform="translate(321.48 409.49) rotate(180)">D</text><path class="cls-3" d="M117.78,159.59,94.9,178.21,72.18,159.48c-6.94-6.67-6.72-17.8-.05-23.87,6.28-5.72,16.55-5.41,22.8,1.13,6.22-6.19,16-6.49,22.19-1.26C124,141.3,124.65,152.57,117.78,159.59Z"/><path class="cls-3" d="M313.69,356l-22.87-18.61L268.09,356.1c-6.94,6.68-6.72,17.8,0,23.88,6.27,5.71,16.54,5.4,22.79-1.13,6.23,6.19,16,6.48,22.19,1.25C319.88,374.29,320.57,363,313.69,356Z"/><path class="cls-4" d="M292.18,66c.4,0,.79,0,1.17,0l.06-6.74,4.46,0V58.09l-4.46,0,0-4.65-2.34,0,0,4.64-4.46,0v1.27l4.46,0L291,66C291.39,66,291.78,66,292.18,66Z"/><path class="cls-4" d="M292.15,69c-5.32,0-7.71,2.38-7.76,7.88a25.09,25.09,0,0,0,2.74,11.28l9.7.09A25.06,25.06,0,0,0,299.77,77C299.82,71.52,297.47,69.05,292.15,69Z"/><path class="cls-4" d="M281.39,76.85a28.57,28.57,0,0,0,2.39,11.28h0l-.08,8.76,2.51,0,.93,10.3-1,109.06a4.68,4.68,0,0,0,9.36.08l1-109L297.6,97l2.51,0,.08-8.76h0A28.57,28.57,0,0,0,302.77,77c.05-5.57-2.15-9.12-6.42-10.45l0-4.25,4.46,0,.07-7.27-4.46,0,0-4.64-8.34-.08,0,4.65-4.47,0-.06,7.27,4.46,0,0,4.25C283.71,67.77,281.44,71.28,281.39,76.85Zm5.22-17.6V58l4.46,0,0-4.64,2.34,0,0,4.65,4.46,0v1.26l-4.46,0-.06,6.74c-.38,0-.77,0-1.17,0s-.79,0-1.17,0l.06-6.73ZM297.14,94l-10.42-.09,0-2.76,10.41.09Zm-4.63,122.33a1.68,1.68,0,0,1-3.36,0l1-107.63,3.35,0Zm1.13-110.63-3.63,0-.79-8.73,5.36,0Zm-6.51-17.55a25.09,25.09,0,0,1-2.74-11.28c.05-5.5,2.44-7.93,7.76-7.88s7.67,2.52,7.62,8a25.06,25.06,0,0,1-2.94,11.24Z"/><path class="cls-4" d="M289.15,216.31a1.68,1.68,0,0,0,3.36,0l1-107.63-3.35,0Z"/><polygon class="cls-4" points="290.01 105.67 293.64 105.7 294.58 96.99 289.22 96.94 290.01 105.67"/><rect class="cls-4" x="290.56" y="87.38" width="2.76" height="10.42" transform="translate(196.74 383.68) rotate(-89.49)"/><path class="cls-4" d="M96.3,452.13l1.17-.05.06,6.73,4.46,0V460l-4.46,0,0,4.64-2.33,0,0-4.64-4.46,0v-1.27l4.46,0-.06-6.73Q95.7,452.13,96.3,452.13Z"/><path class="cls-4" d="M96.27,449.12c-5.31.05-7.71-2.38-7.76-7.87A25.1,25.1,0,0,1,91.25,430l9.71-.09a25.05,25.05,0,0,1,2.93,11.24C103.94,446.6,101.59,449.08,96.27,449.12Z"/><path class="cls-4" d="M85.51,441.27A28.61,28.61,0,0,1,87.9,430h0l-.08-8.76,2.51,0,.93-10.31-1-109.06a4.68,4.68,0,1,1,9.36-.08l1,109.05,1.11,10.29,2.51,0,.08,8.76h0a28.92,28.92,0,0,1,2.59,11.24c0,5.57-2.16,9.12-6.43,10.45l0,4.25,4.46,0L105,463l-4.46,0,0,4.64-8.34.08,0-4.64-4.46,0-.07-7.28,4.46,0,0-4.24C87.83,450.35,85.56,446.84,85.51,441.27Zm5.22,17.6v1.27l4.46,0,0,4.64,2.33,0,0-4.64,4.46,0v-1.27l-4.46,0-.06-6.73-1.17.05q-.6,0-1.17,0l.06,6.73Zm10.53-34.76-10.42.09,0,2.76,10.41-.09ZM96.63,301.79a1.68,1.68,0,1,0-3.35,0l1,107.63,3.35,0Zm1.13,110.63-3.63,0-.79,8.73,5.37-.05ZM91.25,430a25.1,25.1,0,0,0-2.74,11.29c0,5.49,2.45,7.92,7.76,7.87s7.67-2.52,7.62-8A25.05,25.05,0,0,0,101,429.87Z"/><path class="cls-4" d="M93.28,301.82a1.68,1.68,0,1,1,3.35,0l1,107.63-3.35,0Z"/><polygon class="cls-4" points="94.13 412.45 97.76 412.42 98.71 421.13 93.34 421.18 94.13 412.45"/><rect class="cls-4" x="90.86" y="424.16" width="10.42" height="2.76" transform="translate(-3.81 0.88) rotate(-0.51)"/><path class="cls-4" d="M242.55,199.89a5,5,0,0,0-3.66,8.3c-6.38,4.41-13.61,10.32-18.17,17.5a268.9,268.9,0,0,1-.19-32.13,5.53,5.53,0,0,0,.92.07,5.79,5.79,0,1,0-2.78-.7,256.69,256.69,0,0,0-14.77,24l-11.07-34.69a6.58,6.58,0,1,0-2.67,0L179.1,217a258.62,258.62,0,0,0-14.78-24,5.81,5.81,0,1,0-2.77.7,5.49,5.49,0,0,0,.91-.07,268.9,268.9,0,0,1-.19,32.13c-4.56-7.18-11.79-13.09-18.17-17.5a5,5,0,1,0-1.26,1c6.3,13.22,9.58,29.15,9.58,46.1v.16a3.24,3.24,0,0,0,0,.44c3.36-7.14,19.55-12.57,39.06-12.61s35.69,5.47,39.05,12.61a3.25,3.25,0,0,0,0-.44c0-.05,0-.11,0-.16,0-16.95,3.28-32.88,9.58-46.1a5,5,0,1,0,2.4-9.29Z"/><path class="cls-4" d="M242.55,330.07a5,5,0,0,1-3.66-8.31c-6.38-4.4-13.61-10.31-18.17-17.5a269.07,269.07,0,0,0-.19,32.14,5.52,5.52,0,0,1,.92-.08,5.81,5.81,0,1,1-2.78.71,257,257,0,0,1-14.77-24l-11.07,34.69a6.58,6.58,0,1,1-2.67,0L179.1,313a259,259,0,0,1-14.78,24,5.8,5.8,0,1,1-2.77-.71,5.5,5.5,0,0,1,.91.08,269.07,269.07,0,0,0-.19-32.14c-4.56,7.19-11.79,13.1-18.17,17.5a4.93,4.93,0,1,1-1.26-1c6.3-13.21,9.58-29.15,9.58-46.1v-.16a3.1,3.1,0,0,1,0-.43c3.36,7.14,19.55,12.56,39.06,12.6s35.69-5.46,39.05-12.6a3.11,3.11,0,0,1,0,.43c0,.06,0,.11,0,.16,0,16.95,3.28,32.89,9.58,46.1a5,5,0,1,1,2.4,9.3Z"/></svg>