<svg id="Layer_1" data-name="Layer 1" xmlns="http://www.w3.org/2000/svg" viewBox="0 0 372 517"><defs><style>.cls-1{fill:#fff;stroke:#231f20;stroke-width:15px;}.cls-1,.cls-2,.cls-4,.cls-5{stroke-miterlimit:10;}.cls-2{font-size:77px;font-family:Georgia;}.cls-2,.cls-3,.cls-4,.cls-5{fill:#231f20;}.cls-2,.cls-4,.cls-5{stroke:#6c99ae;}.cls-4{stroke-width:0.7px;}.cls-5{stroke-width:2px;}</style></defs><rect class="cls-1" x="7.5" y="7.5" width="357" height="502" rx="62.21"/><text class="cls-2" transform="translate(65.87 108.5)">D</text><text class="cls-2" transform="translate(321.48 409.49) rotate(180)">D</text><path class="cls-3" d="M94.86,160.76a21.64,21.64,0,0,0,4.47,9.82,22.24,22.24,0,0,0,13,7.63H77.42a21.43,21.43,0,0,0,13.27-7.63A20.64,20.64,0,0,0,94.86,160.76Z"/><path class="cls-3" d="M113.32,145.25,94.8,123.85,76.53,145.34a13,13,0,1,0,18.35,18.35,13.39,13.39,0,0,0,17.91,1C118.31,160,118.86,150.91,113.32,145.25Z"/><path class="cls-3" d="M290.8,356.14a21.64,21.64,0,0,1,4.47-9.82,22.24,22.24,0,0,1,13-7.63H273.36a21.46,21.46,0,0,1,13.27,7.63A20.64,20.64,0,0,1,290.8,356.14Z"/><path class="cls-3" d="M309.26,371.65l-18.52,21.4-18.27-21.49a13,13,0,1,1,18.35-18.35,13.39,13.39,0,0,1,17.91-1C314.25,356.89,314.8,366,309.26,371.65Z"/><path class="cls-4" d="M292.23,65.93c.4,0,.79,0,1.17,0l.06-6.73,4.46,0V58l-4.46,0,0-4.64-2.33,0L291.13,58l-4.46,0v1.27l4.46,0L291.06,66Q291.63,65.93,292.23,65.93Z"/><path class="cls-4" d="M292.2,68.93c-5.31,0-7.71,2.39-7.76,7.88a25.16,25.16,0,0,0,2.74,11.29l9.71.08A25,25,0,0,0,299.82,77C299.87,71.45,297.52,69,292.2,68.93Z"/><path class="cls-4" d="M281.44,76.78a28.66,28.66,0,0,0,2.39,11.29h0l-.08,8.76,2.51,0,.93,10.31-1,109.05a4.68,4.68,0,0,0,9.36.09l1-109.06L297.65,97l2.51,0,.08-8.77h0A28.88,28.88,0,0,0,302.83,77c.05-5.57-2.16-9.12-6.43-10.45l0-4.25,4.46,0,.06-7.27-4.46,0,0-4.65-8.34-.07,0,4.64-4.46,0-.07,7.27,4.46,0,0,4.25C283.76,67.71,281.49,71.21,281.44,76.78Zm5.22-17.59V57.92l4.46,0,.05-4.64,2.33,0,0,4.64,4.46,0v1.27l-4.46,0L293.4,66c-.38,0-.77,0-1.17,0s-.79,0-1.17,0l.06-6.73ZM297.19,94l-10.42-.1,0-2.75,10.41.09Zm-4.63,122.32a1.68,1.68,0,0,1-3.35,0l1-107.63,3.35,0Zm1.13-110.63-3.63,0-.79-8.73,5.36.05ZM287.18,88.1a25.16,25.16,0,0,1-2.74-11.29c.05-5.49,2.45-7.92,7.76-7.88s7.67,2.52,7.62,8a25,25,0,0,1-2.93,11.23Z"/><path class="cls-4" d="M289.21,216.24a1.68,1.68,0,0,0,3.35,0l1-107.63-3.35,0Z"/><polygon class="cls-4" points="290.06 105.61 293.69 105.64 294.63 96.93 289.27 96.88 290.06 105.61"/><rect class="cls-4" x="290.61" y="87.31" width="2.76" height="10.42" transform="matrix(0.01, -1, 1, 0.01, 196.86, 383.67)"/><path class="cls-4" d="M96.35,452.06c.4,0,.79,0,1.17-.05l.06,6.73,4.46,0,0,1.27-4.47,0,0,4.64-2.34,0,0-4.64-4.46,0,0-1.27,4.47,0L95.19,452C95.56,452.05,96,452.06,96.35,452.06Z"/><path class="cls-4" d="M96.33,449.06c-5.32.05-7.72-2.38-7.76-7.88A25.08,25.08,0,0,1,91.3,429.9l9.71-.09A25.15,25.15,0,0,1,104,441C104,446.54,101.65,449,96.33,449.06Z"/><path class="cls-4" d="M85.56,441.21A28.75,28.75,0,0,1,88,429.93h0l-.07-8.77,2.51,0,.93-10.31-1-109a4.68,4.68,0,0,1,9.35-.09l1,109.06L101.78,421l2.51,0,.08,8.76h0A28.53,28.53,0,0,1,107,441c0,5.57-2.16,9.11-6.43,10.45l0,4.24,4.46,0,.06,7.28-4.46,0,0,4.64-8.35.07,0-4.64-4.46,0-.07-7.27,4.47,0,0-4.25C87.88,450.29,85.61,446.78,85.56,441.21Zm5.22,17.59,0,1.27,4.46,0,0,4.64,2.34,0,0-4.64,4.47,0,0-1.27-4.46,0L97.52,452c-.38,0-.77.05-1.17.05s-.79,0-1.16,0l.06,6.73Zm10.53-34.75-10.41.09,0,2.76,10.42-.1ZM96.68,301.72a1.68,1.68,0,1,0-3.35,0l1,107.63,3.36,0Zm1.14,110.63-3.64,0-.79,8.73,5.37,0ZM91.3,429.9a25.08,25.08,0,0,0-2.73,11.28c0,5.5,2.44,7.93,7.76,7.88s7.67-2.52,7.62-8A25.15,25.15,0,0,0,101,429.81Z"/><path class="cls-4" d="M93.33,301.75a1.68,1.68,0,1,1,3.35,0l1,107.63-3.36,0Z"/><polygon class="cls-4" points="94.18 412.38 97.81 412.35 98.76 421.07 93.39 421.11 94.18 412.38"/><rect class="cls-4" x="90.91" y="424.09" width="10.42" height="2.76" transform="translate(-3.81 0.88) rotate(-0.51)"/><path class="cls-5" d="M242.6,193.91a5,5,0,0,0-3.66,8.3c-6.38,4.41-13.61,10.31-18.17,17.5a271,271,0,0,1-.19-32.13,7,7,0,0,0,.92.07,5.8,5.8,0,1,0-2.77-.7A254.37,254.37,0,0,0,204,211L192.88,176.3a6.57,6.57,0,1,0-2.66,0L179.15,211a256.48,256.48,0,0,0-14.78-24,5.81,5.81,0,1,0-2.77.7,7,7,0,0,0,.92-.07,271,271,0,0,1-.19,32.13c-4.56-7.19-11.8-13.09-18.18-17.5a5,5,0,1,0-1.26,1c6.3,13.21,9.58,29.15,9.59,46.1a.86.86,0,0,0,0,.16,3,3,0,0,0,0,.43c3.36-7.14,19.55-12.56,39.06-12.6s35.7,5.46,39.06,12.6c0-.14,0-.28,0-.43s0-.11,0-.16c0-17,3.29-32.89,9.59-46.1a5,5,0,1,0,2.39-9.29Z"/><path class="cls-5" d="M242.6,324.09a5,5,0,0,1-3.66-8.31c-6.38-4.4-13.61-10.31-18.17-17.5a271,271,0,0,0-.19,32.13,7,7,0,0,1,.92-.07,5.83,5.83,0,1,1-2.77.71A256,256,0,0,1,204,307l-11.07,34.69a6.57,6.57,0,1,1-2.66,0L179.15,307a258.16,258.16,0,0,1-14.78,24.05,5.8,5.8,0,1,1-2.77-.71,7,7,0,0,1,.92.07,271,271,0,0,0-.19-32.13c-4.56,7.19-11.8,13.1-18.18,17.5a5,5,0,1,1-1.26-1c6.3-13.21,9.58-29.15,9.59-46.1a.81.81,0,0,1,0-.16,3.1,3.1,0,0,1,0-.43c3.36,7.14,19.55,12.56,39.06,12.6s35.7-5.46,39.06-12.6c0,.14,0,.29,0,.43s0,.11,0,.16c0,16.95,3.29,32.89,9.59,46.1a5,5,0,1,1,2.39,9.3Z"/></svg>