<svg id="Layer_1" data-name="Layer 1" xmlns="http://www.w3.org/2000/svg" xmlns:xlink="http://www.w3.org/1999/xlink" viewBox="0 0 713.36 864.42"><defs><style>.cls-1,.cls-2{fill:#0073b5;}.cls-1,.cls-5{stroke:#c2c4c6;stroke-width:15px;}.cls-1,.cls-4,.cls-5{stroke-miterlimit:10;}.cls-3{clip-path:url(#clip-path);}.cls-4,.cls-5{fill:none;}.cls-4{stroke:#f1f2f2;stroke-width:5px;}</style><clipPath id="clip-path"><rect class="cls-1" x="178.18" y="181.21" width="357" height="502" rx="62.21"/></clipPath></defs><rect class="cls-2" x="178.18" y="181.21" width="357" height="502" rx="62.21"/><g class="cls-3"><line class="cls-4" x1="520.37" y1="202.92" x2="203.6" y2="672.11"/><line class="cls-4" x1="530.97" y1="213.53" x2="214.2" y2="682.71"/><line class="cls-4" x1="541.58" y1="224.14" x2="224.81" y2="693.32"/><line class="cls-4" x1="552.18" y1="234.74" x2="235.42" y2="703.93"/><line class="cls-4" x1="562.79" y1="245.35" x2="246.02" y2="714.53"/><line class="cls-4" x1="573.4" y1="255.96" x2="256.63" y2="725.14"/><line class="cls-4" x1="584" y1="266.56" x2="267.24" y2="735.75"/><line class="cls-4" x1="594.61" y1="277.17" x2="277.84" y2="746.35"/><line class="cls-4" x1="605.22" y1="287.78" x2="288.45" y2="756.96"/><line class="cls-4" x1="615.82" y1="298.38" x2="299.06" y2="767.57"/><line class="cls-4" x1="626.43" y1="308.99" x2="309.66" y2="778.17"/><line class="cls-4" x1="637.04" y1="319.6" x2="320.27" y2="788.78"/><line class="cls-4" x1="647.64" y1="330.2" x2="330.88" y2="799.39"/><line class="cls-4" x1="658.25" y1="340.81" x2="341.48" y2="809.99"/><line class="cls-4" x1="668.86" y1="351.42" x2="352.09" y2="820.6"/><line class="cls-4" x1="679.46" y1="362.02" x2="362.7" y2="831.21"/><line class="cls-4" x1="690.07" y1="372.63" x2="373.3" y2="841.81"/><line class="cls-4" x1="700.68" y1="383.24" x2="383.91" y2="852.42"/><line class="cls-4" x1="711.28" y1="393.84" x2="394.52" y2="863.03"/><line class="cls-4" x1="509.76" y1="192.32" x2="192.99" y2="661.5"/><line class="cls-4" x1="499.15" y1="181.71" x2="182.38" y2="650.89"/><line class="cls-4" x1="488.55" y1="171.1" x2="171.78" y2="640.29"/><line class="cls-4" x1="477.94" y1="160.5" x2="161.17" y2="629.68"/><line class="cls-4" x1="467.33" y1="149.89" x2="150.56" y2="619.07"/><line class="cls-4" x1="456.73" y1="139.28" x2="139.96" y2="608.47"/><line class="cls-4" x1="446.12" y1="128.68" x2="129.35" y2="597.86"/><line class="cls-4" x1="435.51" y1="118.07" x2="118.74" y2="587.25"/><line class="cls-4" x1="424.91" y1="107.46" x2="108.14" y2="576.65"/><line class="cls-4" x1="414.3" y1="96.86" x2="97.53" y2="566.04"/><line class="cls-4" x1="403.69" y1="86.25" x2="86.92" y2="555.43"/><line class="cls-4" x1="393.09" y1="75.65" x2="76.32" y2="544.83"/><line class="cls-4" x1="382.48" y1="65.04" x2="65.71" y2="534.22"/><line class="cls-4" x1="371.87" y1="54.43" x2="55.1" y2="523.61"/><line class="cls-4" x1="361.27" y1="43.83" x2="44.5" y2="513.01"/><line class="cls-4" x1="350.66" y1="33.22" x2="33.89" y2="502.4"/><line class="cls-4" x1="340.05" y1="22.61" x2="23.29" y2="491.79"/><line class="cls-4" x1="329.45" y1="12.01" x2="12.68" y2="481.19"/><line class="cls-4" x1="318.84" y1="1.4" x2="2.07" y2="470.58"/></g><rect class="cls-5" x="178.18" y="181.21" width="357" height="502" rx="62.21"/></svg>