<svg id="Layer_1" data-name="Layer 1" xmlns="http://www.w3.org/2000/svg" viewBox="0 0 372 517"><defs><style>.cls-1{fill:#fff;stroke:#231f20;stroke-width:15px;}.cls-1,.cls-2,.cls-3,.cls-4{stroke-miterlimit:10;}.cls-2{font-size:77px;font-family:Georgia;}.cls-2,.cls-3,.cls-4,.cls-5{fill:#231f20;}.cls-2,.cls-3,.cls-4{stroke:#6c99ae;}.cls-3{stroke-width:2px;}</style></defs><rect class="cls-1" x="7.5" y="7.5" width="357" height="502" rx="62.21"/><text class="cls-2" transform="translate(65.87 108.5)">R</text><text class="cls-2" transform="translate(321.48 409.49) rotate(180)">R</text><path class="cls-3" d="M235.33,195.29l1.24,5.68c-2.16,6.47-5.66,11.45-10.76,14.71-1.51,1-3.26.13-4.1-2-3.33-8.39-3.38-15.86-2.69-23l3.18-4.52-3.84-11.86-6,10.17,2.05,5.12c-1,6.35-4.43,12.38-9.09,18.19-1.37,1.7-3.4,1.46-4.57-.56a46.08,46.08,0,0,1-6.48-22.8L197,180l-5.41-11.69L186.14,180l2.67,4.44a46.08,46.08,0,0,1-6.48,22.8c-1.17,2-3.2,2.26-4.57.56-4.66-5.81-8.07-11.84-9.1-18.19l2.06-5.12-6-10.17-3.85,11.86,3.19,4.52c.69,7.15.64,14.62-2.7,23-.83,2.1-2.59,2.93-4.09,2-5.1-3.26-8.6-8.24-10.76-14.71l1.23-5.68-8.18-7.9,16.49,56.66c1,3.51,14.43,7.72,33.17,9.12q1.15.09,2.31.09c.77,0,1.54,0,2.3-.09,18.75-1.4,32.13-5.61,33.18-9.12l16.48-56.66Z"/><path class="cls-3" d="M237.27,333.73l1.24-5.68c-2.17-6.47-5.66-11.46-10.77-14.72-1.5-.95-3.25-.12-4.09,2-3.33,8.39-3.39,15.85-2.69,23l3.18,4.52L220.3,354.7l-6-10.17,2.06-5.12c-1-6.35-4.44-12.38-9.09-18.19-1.37-1.71-3.41-1.46-4.57.55a46.27,46.27,0,0,0-6.49,22.81l2.67,4.44-5.4,11.68L188.08,349l2.67-4.44a46.25,46.25,0,0,0-6.48-22.81c-1.17-2-3.21-2.26-4.57-.55-4.66,5.81-8.07,11.84-9.1,18.19l2.06,5.12-6,10.17-3.84-11.86,3.18-4.52c.7-7.16.65-14.62-2.69-23-.83-2.1-2.59-2.93-4.09-2-5.1,3.26-8.6,8.25-10.76,14.72l1.23,5.68-8.18,7.89L158,285c1-3.51,14.43-7.72,33.17-9.13.77-.06,1.54-.08,2.31-.08s1.53,0,2.3.08c18.75,1.41,32.13,5.62,33.18,9.13l16.48,56.65Z"/><polygon class="cls-4" points="277.99 178.21 286.4 178.21 290.68 182.49 294.96 178.21 303.49 178.21 307.02 169.23 294.99 169.23 290.71 164.95 286.43 169.23 279.57 169.23 274.46 169.23 277.99 178.21"/><path class="cls-4" d="M284.92,215.11a5.83,5.83,0,1,0,10.07-4V182.89h-.05l-4.28,4.28L286.49,183v28.12A5.82,5.82,0,0,0,284.92,215.11Z"/><polygon class="cls-4" points="294.92 178.21 286.49 178.21 286.49 178.29 290.66 182.46 294.92 178.21"/><path class="cls-4" d="M286.41,164.54l4.28-4.28,4.28,4.28h4.1V66l-8.36-15.71L282.35,66v98.54Zm-1.89-97.78,6.22-11.92,0,102.4-5.16,5.15h-1Z"/><polygon class="cls-4" points="82.11 339.79 90.53 339.79 94.81 335.51 99.08 339.79 107.61 339.79 111.14 348.76 99.11 348.76 94.83 353.05 90.56 348.76 83.69 348.76 78.59 348.76 82.11 339.79"/><path class="cls-4" d="M89,302.88a5.83,5.83,0,1,1,10.07,4V335.1h0l-4.28-4.28L90.61,335V306.87A5.83,5.83,0,0,1,89,302.88Z"/><polygon class="cls-4" points="99.04 339.79 90.61 339.79 90.61 339.7 94.78 335.53 99.04 339.79"/><path class="cls-4" d="M90.53,353.45l4.28,4.28,4.28-4.28h4.11V452L94.83,467.7,86.47,452V353.45Zm-1.89,97.78,6.22,11.92,0-102.4-5.16-5.15h-1Z"/><circle class="cls-5" cx="82.28" cy="153.74" r="13.9"/><circle class="cls-5" cx="95.17" cy="135.43" r="13.9"/><circle class="cls-5" cx="107.44" cy="153.74" r="13.9"/><path class="cls-5" d="M94.83,158.91a21.59,21.59,0,0,0,4.46,9.82,22.24,22.24,0,0,0,13,7.63H77.38a21.43,21.43,0,0,0,13.27-7.63A20.68,20.68,0,0,0,94.83,158.91Z"/><circle class="cls-5" cx="277.59" cy="366.9" r="13.9"/><circle class="cls-5" cx="290.47" cy="385.2" r="13.9"/><circle class="cls-5" cx="302.75" cy="366.9" r="13.9"/><path class="cls-5" d="M290.13,361.72a21.73,21.73,0,0,1,4.47-9.82,22.2,22.2,0,0,1,13-7.62H272.69A21.37,21.37,0,0,1,286,351.9,20.64,20.64,0,0,1,290.13,361.72Z"/></svg>