<svg xmlns="http://www.w3.org/2000/svg" viewBox="0 0 372 517"><defs><style>.cls-1{isolation:isolate;}.cls-2{fill:#fff;stroke:#ed1c24;stroke-width:15px;}.cls-2,.cls-3,.cls-4,.cls-5{stroke-miterlimit:10;}.cls-3{font-size:77px;font-family:Georgia;}.cls-3,.cls-4,.cls-5,.cls-7{fill:#ed1c24;}.cls-3,.cls-4,.cls-5{stroke:#ffc40c;}.cls-5,.cls-6{mix-blend-mode:multiply;opacity:0.54;}</style></defs><g class="cls-1"><g id="Layer_1" data-name="Layer 1"><rect class="cls-2" x="7.5" y="7.5" width="357" height="502" rx="62.21"/><text class="cls-3" transform="translate(70.12 108.5)">V</text><text class="cls-3" transform="translate(314.74 409.49) rotate(180)">V</text><g id="_5" data-name="5"><path class="cls-4" d="M297.47,51.36a27.55,27.55,0,0,1,2,9.55,45.22,45.22,0,0,1-5.32,68.23,22.54,22.54,0,0,1-4.67,6.55c18.24-.52,34.15-16.8,36.57-38.44C328.5,75.05,315.89,55.22,297.47,51.36Z"/><path class="cls-4" d="M312.25,97.74a44.79,44.79,0,0,0-12.81-36.83,26.74,26.74,0,0,1-.16,3.56c-1.76,15.75-16.84,27-33.67,25.1A32.39,32.39,0,0,1,254,86c-.19,1-.35,2.08-.47,3.14a48.48,48.48,0,0,0,1.42,18.35,22.43,22.43,0,0,1,39.19,21.65A44.82,44.82,0,0,0,312.25,97.74Z"/><rect class="cls-4" x="265.35" y="68.97" width="10.38" height="126.28" rx="3.08"/><rect class="cls-4" x="263.1" y="85.81" width="14.87" height="15.43" rx="2.08"/><rect class="cls-4" x="263.1" y="131.27" width="14.87" height="7.02" rx="2.08"/><rect class="cls-4" x="263.1" y="190.2" width="14.87" height="7.02" rx="2.08"/></g><g id="_5-2" data-name="5"><path class="cls-4" d="M86.15,474.71a27.23,27.23,0,0,1-2-9.54,45.23,45.23,0,0,1,5.32-68.24,22.49,22.49,0,0,1,4.67-6.54c-18.24.52-34.15,16.8-36.57,38.44C55.11,451,67.72,470.86,86.15,474.71Z"/><path class="cls-4" d="M71.36,428.34a44.83,44.83,0,0,0,12.81,36.83,26.59,26.59,0,0,1,.16-3.56c1.76-15.75,16.84-27,33.68-25.11a32.32,32.32,0,0,1,11.63,3.58c.18-1,.34-2.08.46-3.14a48.33,48.33,0,0,0-1.42-18.36,22.43,22.43,0,0,1-39.19-21.65A44.88,44.88,0,0,0,71.36,428.34Z"/><rect class="cls-4" x="107.88" y="330.83" width="10.38" height="126.28" rx="3.08" transform="translate(226.14 787.93) rotate(180)"/><rect class="cls-4" x="105.63" y="424.83" width="14.87" height="15.43" rx="2.08" transform="translate(226.14 865.1) rotate(180)"/><rect class="cls-4" x="105.63" y="387.79" width="14.87" height="7.02" rx="2.08" transform="translate(226.14 782.6) rotate(180)"/><rect class="cls-4" x="105.63" y="328.86" width="14.87" height="7.02" rx="2.08" transform="translate(226.14 664.74) rotate(180)"/></g><path class="cls-4" d="M227.55,231.05v-.86a56.43,56.43,0,0,0-5.67-25.28,55.59,55.59,0,0,0-12.5-16.42,62.57,62.57,0,0,0-17.88-11.44,62.57,62.57,0,0,0-17.89,11.44,55.59,55.59,0,0,0-12.5,16.42,56.43,56.43,0,0,0-5.67,25.28v.86l-.8.29c-.15,0-13.61,5-22.32,11.6A103.1,103.1,0,0,0,143.4,245c8.69,1.23,24.09,2.7,48.1,2.7s39.41-1.47,48.1-2.7a103.62,103.62,0,0,0,11.08-2.09c-8.72-6.6-22.18-11.55-22.33-11.6Z"/><path class="cls-4" d="M254.06,242.54c-7.82-6.72-20.72-11.91-24.07-13.19a58.75,58.75,0,0,0-6-25.58A58,58,0,0,0,211,186.62a62.71,62.71,0,0,0-19-12l-.41-.14-.41.14a62.56,62.56,0,0,0-19.05,12,56.88,56.88,0,0,0-19,42.73c-3.36,1.28-16.26,6.47-24.08,13.19l-1.57,1.35,1.94.72c.62.23,15.65,5.56,62.2,5.56s61.57-5.33,62.19-5.56l1.95-.72ZM239.6,245c-8.69,1.23-24.09,2.7-48.1,2.7s-39.41-1.47-48.1-2.7a103.1,103.1,0,0,1-11.08-2.09c8.71-6.6,22.17-11.55,22.32-11.6l.8-.29v-.86a56.43,56.43,0,0,1,5.67-25.28,55.59,55.59,0,0,1,12.5-16.42,62.57,62.57,0,0,1,17.89-11.44,62.57,62.57,0,0,1,17.88,11.44,55.59,55.59,0,0,1,12.5,16.42,56.43,56.43,0,0,1,5.67,25.28v.86l.8.29c.15,0,13.61,5,22.33,11.6A103.62,103.62,0,0,1,239.6,245Z"/><path class="cls-4" d="M228.35,231.34l-.8-.29v-.86a56.43,56.43,0,0,0-5.67-25.28,55.59,55.59,0,0,0-12.5-16.42,62.57,62.57,0,0,0-17.88-11.44s24.77,12.16,28.31,45.84a62.65,62.65,0,0,1,.42,7.3v.86l.8.29c.15,0,13.6,5,22.33,11.6A104,104,0,0,1,232.27,245c-3.64.52-8.48,1.08-14.63,1.55l-.24.5c9.89-.55,17.17-1.34,22.2-2.05a103.62,103.62,0,0,0,11.08-2.09C242,236.34,228.5,231.39,228.35,231.34Z"/><path class="cls-4" d="M184.83,180.34a64.12,64.12,0,0,0-11.22,8.15,55.59,55.59,0,0,0-12.5,16.42,56.43,56.43,0,0,0-5.67,25.28v.86l-.8.29c-.15,0-13.61,5-22.32,11.6,1,.26,2.37.58,4.15.93,8.62-5.83,20.07-10,20.2-10.09l.8-.29v-.86S155.39,201,184.83,180.34Z"/><path class="cls-5" d="M191.5,232.89c-16,0-28.19-.66-37.1-1.46-1.86.7-14,5.4-22.08,11.51A103.1,103.1,0,0,0,143.4,245c8.69,1.23,24.09,2.7,48.1,2.7s39.41-1.47,48.1-2.7a103.62,103.62,0,0,0,11.08-2.09c-8.08-6.12-20.22-10.81-22.08-11.51C219.68,232.23,207.5,232.89,191.5,232.89Z"/><g class="cls-6"><path class="cls-4" d="M228.91,231.55l-.56-.21-.8-.29v-.86a56.43,56.43,0,0,0-5.67-25.28,55.59,55.59,0,0,0-12.5-16.42,62.57,62.57,0,0,0-17.88-11.44v55.84c16,0,28.18-.66,37.1-1.46Z"/><path class="cls-4" d="M228.92,231.55c.89.34,2.77,1.08,5.16,2.13h0C231.69,232.63,229.81,231.89,228.92,231.55Z"/></g><path class="cls-4" d="M212.05,227.52a1.54,1.54,0,1,0,1.54,1.54A1.54,1.54,0,0,0,212.05,227.52Z"/><path class="cls-4" d="M191.5,227.52a1.54,1.54,0,1,0,1.54,1.54A1.54,1.54,0,0,0,191.5,227.52Z"/><path class="cls-4" d="M171,227.52a1.54,1.54,0,1,0,1.54,1.54A1.55,1.55,0,0,0,171,227.52Z"/><path class="cls-4" d="M227.55,298.65v.86a56.43,56.43,0,0,1-5.67,25.28,55.59,55.59,0,0,1-12.5,16.42,62.57,62.57,0,0,1-17.88,11.44,62.57,62.57,0,0,1-17.89-11.44,55.59,55.59,0,0,1-12.5-16.42,56.43,56.43,0,0,1-5.67-25.28v-.86l-.8-.29c-.15-.05-13.61-5-22.32-11.6a103.1,103.1,0,0,1,11.08-2.09c8.69-1.23,24.09-2.7,48.1-2.7s39.41,1.47,48.1,2.7a103.62,103.62,0,0,1,11.08,2.09c-8.72,6.61-22.18,11.55-22.33,11.6Z"/><path class="cls-4" d="M254.06,287.16c-7.82,6.72-20.72,11.91-24.07,13.2a58.67,58.67,0,0,1-6,25.57A58,58,0,0,1,211,343.08a62.71,62.71,0,0,1-19,12l-.41.14-.41-.14a62.56,62.56,0,0,1-19.05-12,56.88,56.88,0,0,1-19-42.72c-3.36-1.29-16.26-6.48-24.08-13.2l-1.57-1.35,1.94-.72c.62-.22,15.65-5.56,62.2-5.56s61.57,5.34,62.19,5.56l1.95.72Zm-14.46-2.49c-8.69-1.23-24.09-2.7-48.1-2.7s-39.41,1.47-48.1,2.7a103.1,103.1,0,0,0-11.08,2.09c8.71,6.6,22.17,11.55,22.32,11.6l.8.29v.86a56.43,56.43,0,0,0,5.67,25.28,55.59,55.59,0,0,0,12.5,16.42,62.57,62.57,0,0,0,17.89,11.44,62.57,62.57,0,0,0,17.88-11.44,55.59,55.59,0,0,0,12.5-16.42,56.43,56.43,0,0,0,5.67-25.28v-.86l.8-.29c.15-.05,13.61-5,22.33-11.6A103.62,103.62,0,0,0,239.6,284.67Z"/><path class="cls-4" d="M228.35,298.36l-.8.29v.86a56.43,56.43,0,0,1-5.67,25.28,55.59,55.59,0,0,1-12.5,16.42,62.57,62.57,0,0,1-17.88,11.44s24.77-12.15,28.31-45.84a62.52,62.52,0,0,0,.42-7.3v-.86l.8-.29c.15-.05,13.6-5,22.33-11.6a104,104,0,0,0-11.09-2.09c-3.64-.51-8.48-1.07-14.63-1.55l-.24-.5c9.89.55,17.17,1.34,22.2,2.05a103.62,103.62,0,0,1,11.08,2.09C242,293.37,228.5,298.31,228.35,298.36Z"/><path class="cls-4" d="M184.83,349.37a64.76,64.76,0,0,1-11.22-8.16,55.59,55.59,0,0,1-12.5-16.42,56.43,56.43,0,0,1-5.67-25.28v-.86l-.8-.29c-.15-.05-13.61-5-22.32-11.6,1-.26,2.37-.58,4.15-.93,8.62,5.83,20.07,10,20.2,10.09l.8.29v.86S155.39,328.74,184.83,349.37Z"/><path class="cls-5" d="M191.5,296.81c-16,0-28.19.66-37.1,1.46-1.86-.7-14-5.39-22.08-11.51a103.1,103.1,0,0,1,11.08-2.09c8.69-1.23,24.09-2.7,48.1-2.7s39.41,1.47,48.1,2.7a103.62,103.62,0,0,1,11.08,2.09c-8.08,6.12-20.22,10.81-22.08,11.51C219.68,297.47,207.5,296.81,191.5,296.81Z"/><g class="cls-6"><path class="cls-4" d="M228.91,298.15l-.56.21-.8.29v.86a56.43,56.43,0,0,1-5.67,25.28,55.59,55.59,0,0,1-12.5,16.42,62.57,62.57,0,0,1-17.88,11.44V296.81c16,0,28.18.66,37.1,1.46Z"/><path class="cls-4" d="M228.92,298.15c.89-.34,2.77-1.08,5.16-2.13h0C231.69,297.07,229.81,297.81,228.92,298.15Z"/></g><path class="cls-4" d="M212.05,302.18a1.54,1.54,0,1,1,1.54-1.54A1.54,1.54,0,0,1,212.05,302.18Z"/><path class="cls-4" d="M191.5,302.18a1.54,1.54,0,1,1,1.54-1.54A1.54,1.54,0,0,1,191.5,302.18Z"/><path class="cls-4" d="M171,302.18a1.54,1.54,0,1,1,1.54-1.54A1.55,1.55,0,0,1,171,302.18Z"/><path class="cls-7" d="M116.49,160.3,93.61,178.91,70.89,160.19c-6.94-6.68-6.72-17.8,0-23.88,6.28-5.71,16.55-5.4,22.8,1.13,6.22-6.18,16-6.48,22.19-1.25C122.68,142,123.36,153.28,116.49,160.3Z"/><path class="cls-7" d="M312.41,356.7l-22.88-18.61L266.8,356.81c-6.94,6.68-6.72,17.8,0,23.88,6.27,5.71,16.54,5.4,22.79-1.13,6.23,6.18,16,6.48,22.2,1.25C318.59,375,319.28,363.72,312.41,356.7Z"/></g></g></svg>