<svg xmlns="http://www.w3.org/2000/svg" viewBox="0 0 372 517"><defs><style>.cls-1{isolation:isolate;}.cls-2{fill:#fff;stroke:#231f20;stroke-width:15px;}.cls-2,.cls-3,.cls-5,.cls-6{stroke-miterlimit:10;}.cls-3{font-size:77px;font-family:Georgia;}.cls-3,.cls-4,.cls-5,.cls-6{fill:#231f20;}.cls-3,.cls-5,.cls-6{stroke:#6c99ae;}.cls-6,.cls-7{mix-blend-mode:multiply;opacity:0.54;}</style></defs><g class="cls-1"><g id="Layer_1" data-name="Layer 1"><rect class="cls-2" x="7.5" y="7.5" width="357" height="502" rx="62.21"/><text class="cls-3" transform="translate(65.87 108.5)">V</text><text class="cls-3" transform="translate(321.48 409.49) rotate(180)">V</text><path class="cls-4" d="M94.86,160.76a21.64,21.64,0,0,0,4.47,9.82,22.24,22.24,0,0,0,13,7.63H77.42a21.43,21.43,0,0,0,13.27-7.63A20.64,20.64,0,0,0,94.86,160.76Z"/><path class="cls-4" d="M113.32,145.25,94.8,123.85,76.53,145.34a13,13,0,1,0,18.35,18.35,13.39,13.39,0,0,0,17.91,1C118.31,160,118.86,150.91,113.32,145.25Z"/><path class="cls-4" d="M290.8,356.14a21.64,21.64,0,0,1,4.47-9.82,22.24,22.24,0,0,1,13-7.63H273.36a21.46,21.46,0,0,1,13.27,7.63A20.64,20.64,0,0,1,290.8,356.14Z"/><path class="cls-4" d="M309.26,371.65l-18.52,21.4-18.27-21.49a13,13,0,1,1,18.35-18.35,13.39,13.39,0,0,1,17.91-1C314.25,356.89,314.8,366,309.26,371.65Z"/><g id="_5" data-name="5"><path class="cls-5" d="M297.58,45.8a27.23,27.23,0,0,1,2,9.54,45.23,45.23,0,0,1-5.32,68.24,22.49,22.49,0,0,1-4.67,6.54c18.24-.52,34.15-16.8,36.57-38.44C328.62,69.48,316,49.65,297.58,45.8Z"/><path class="cls-5" d="M312.37,92.18a44.84,44.84,0,0,0-12.81-36.84,26.59,26.59,0,0,1-.16,3.56c-1.76,15.75-16.84,27-33.68,25.11a32.32,32.32,0,0,1-11.63-3.58c-.18,1-.34,2.08-.46,3.14a48.33,48.33,0,0,0,1.42,18.36,22.43,22.43,0,0,1,39.19,21.65A44.88,44.88,0,0,0,312.37,92.18Z"/><rect class="cls-5" x="265.47" y="63.4" width="10.38" height="126.28" rx="3.08"/><rect class="cls-5" x="263.22" y="80.24" width="14.87" height="15.43" rx="2.08"/><rect class="cls-5" x="263.22" y="125.7" width="14.87" height="7.02" rx="2.08"/><rect class="cls-5" x="263.22" y="184.63" width="14.87" height="7.02" rx="2.08"/></g><g id="_5-2" data-name="5"><path class="cls-5" d="M86.26,469.15a27.5,27.5,0,0,1-2-9.55,45.2,45.2,0,0,1,5.32-68.23,22.54,22.54,0,0,1,4.67-6.55c-18.24.52-34.15,16.8-36.57,38.44C55.22,445.46,67.84,465.29,86.26,469.15Z"/><path class="cls-5" d="M71.47,422.77A44.83,44.83,0,0,0,84.29,459.6a26.74,26.74,0,0,1,.16-3.56c1.76-15.75,16.84-27,33.67-25.1a32.45,32.45,0,0,1,11.63,3.57c.19-1,.35-2.08.47-3.14A48.48,48.48,0,0,0,128.8,413a22.43,22.43,0,0,1-39.19-21.65A44.87,44.87,0,0,0,71.47,422.77Z"/><rect class="cls-5" x="108" y="325.26" width="10.38" height="126.28" rx="3.08"/><rect class="cls-5" x="105.75" y="419.27" width="14.87" height="15.43" rx="2.08"/><rect class="cls-5" x="105.75" y="382.23" width="14.87" height="7.02" rx="2.08"/><rect class="cls-5" x="105.75" y="323.3" width="14.87" height="7.02" rx="2.08"/></g><path class="cls-5" d="M227.67,225.48v-.85A56.5,56.5,0,0,0,222,199.34a55.55,55.55,0,0,0-12.5-16.41,62,62,0,0,0-17.89-11.44,62.09,62.09,0,0,0-17.88,11.44,55.55,55.55,0,0,0-12.5,16.41,56.5,56.5,0,0,0-5.67,25.29v.85l-.8.29c-.15.06-13.61,5-22.33,11.61a107.46,107.46,0,0,0,11.09,2.08c8.69,1.24,24.08,2.71,48.09,2.71s39.41-1.47,48.1-2.71a107.46,107.46,0,0,0,11.09-2.08c-8.73-6.61-22.18-11.55-22.33-11.61Z"/><path class="cls-5" d="M254.18,237c-7.82-6.72-20.72-11.9-24.08-13.19a58.6,58.6,0,0,0-5.94-25.58,57.86,57.86,0,0,0-13.09-17.14,62.56,62.56,0,0,0-19-12l-.41-.15-.4.15a62.56,62.56,0,0,0-19.05,12,57.86,57.86,0,0,0-13.09,17.14,58.75,58.75,0,0,0-5.95,25.58c-3.35,1.29-16.25,6.47-24.07,13.19l-1.58,1.36,1.95.71c.62.23,15.65,5.57,62.19,5.57s61.58-5.34,62.2-5.57l1.95-.71Zm-14.47,2.49c-8.69,1.24-24.09,2.71-48.1,2.71s-39.4-1.47-48.09-2.71a107.46,107.46,0,0,1-11.09-2.08c8.72-6.61,22.18-11.55,22.33-11.61l.8-.29v-.85a56.5,56.5,0,0,1,5.67-25.29,55.55,55.55,0,0,1,12.5-16.41,62.09,62.09,0,0,1,17.88-11.44,62,62,0,0,1,17.89,11.44A55.55,55.55,0,0,1,222,199.34a56.5,56.5,0,0,1,5.67,25.29v.85l.8.29c.15.06,13.6,5,22.33,11.61A107.46,107.46,0,0,1,239.71,239.46Z"/><path class="cls-5" d="M228.47,225.77l-.8-.29v-.85A56.5,56.5,0,0,0,222,199.34a55.55,55.55,0,0,0-12.5-16.41,62,62,0,0,0-17.89-11.44s24.78,12.15,28.32,45.84a64.65,64.65,0,0,1,.42,7.3v.85l.8.29c.15.06,13.6,5,22.32,11.61a106.55,106.55,0,0,1-11.08,2.08c-3.65.52-8.48,1.08-14.64,1.55-.07.17-.15.34-.23.5,9.89-.54,17.17-1.33,22.19-2a107.46,107.46,0,0,0,11.09-2.08C242.07,230.77,228.62,225.83,228.47,225.77Z"/><path class="cls-5" d="M185,174.77a63.86,63.86,0,0,0-11.22,8.16,55.55,55.55,0,0,0-12.5,16.41,56.5,56.5,0,0,0-5.67,25.29v.85l-.8.29c-.15.06-13.61,5-22.33,11.61,1,.25,2.38.57,4.16.92,8.61-5.83,20.07-10,20.2-10.08l.8-.3v-.85S155.51,195.4,185,174.77Z"/><path class="cls-6" d="M191.61,227.32c-16,0-28.18-.65-37.1-1.45-1.86.7-14,5.39-22.08,11.51a107.46,107.46,0,0,0,11.09,2.08c8.69,1.24,24.08,2.71,48.09,2.71s39.41-1.47,48.1-2.71a107.46,107.46,0,0,0,11.09-2.08c-8.08-6.12-20.23-10.82-22.08-11.51C219.8,226.67,207.62,227.32,191.61,227.32Z"/><g class="cls-7"><path class="cls-5" d="M229,226l-.56-.21-.8-.29v-.85A56.5,56.5,0,0,0,222,199.34a55.55,55.55,0,0,0-12.5-16.41,62,62,0,0,0-17.89-11.44v55.83c16,0,28.19-.65,37.11-1.45Z"/><path class="cls-5" d="M229,226c.89.34,2.77,1.08,5.16,2.13h0C231.81,227.07,229.93,226.33,229,226Z"/></g><path class="cls-5" d="M212.16,222a1.55,1.55,0,1,0,1.55,1.54A1.54,1.54,0,0,0,212.16,222Z"/><path class="cls-5" d="M191.61,222a1.55,1.55,0,1,0,1.55,1.54A1.54,1.54,0,0,0,191.61,222Z"/><path class="cls-5" d="M171.07,222a1.55,1.55,0,1,0,1.54,1.54A1.54,1.54,0,0,0,171.07,222Z"/><path class="cls-5" d="M227.67,293.09v.85A56.5,56.5,0,0,1,222,319.23a55.55,55.55,0,0,1-12.5,16.41,62.32,62.32,0,0,1-17.89,11.45,62.46,62.46,0,0,1-17.88-11.45,55.55,55.55,0,0,1-12.5-16.41,56.5,56.5,0,0,1-5.67-25.29v-.85l-.8-.29c-.15-.06-13.61-5-22.33-11.61a107.46,107.46,0,0,1,11.09-2.08c8.69-1.24,24.08-2.71,48.09-2.71s39.41,1.47,48.1,2.71a107.46,107.46,0,0,1,11.09,2.08c-8.73,6.61-22.18,11.55-22.33,11.61Z"/><path class="cls-5" d="M254.18,281.6c-7.82,6.72-20.72,11.91-24.08,13.19a58.6,58.6,0,0,1-5.94,25.58,57.86,57.86,0,0,1-13.09,17.14,62.56,62.56,0,0,1-19,12l-.41.15-.4-.15a62.56,62.56,0,0,1-19.05-12,57.86,57.86,0,0,1-13.09-17.14,58.75,58.75,0,0,1-5.95-25.58c-3.35-1.28-16.25-6.47-24.07-13.19l-1.58-1.35,1.95-.72c.62-.23,15.65-5.57,62.19-5.57s61.58,5.34,62.2,5.57l1.95.72Zm-14.47-2.49c-8.69-1.24-24.09-2.71-48.1-2.71s-39.4,1.47-48.09,2.71a107.46,107.46,0,0,0-11.09,2.08c8.72,6.61,22.18,11.55,22.33,11.61l.8.29v.85a56.5,56.5,0,0,0,5.67,25.29,55.55,55.55,0,0,0,12.5,16.41,62.46,62.46,0,0,0,17.88,11.45,62.32,62.32,0,0,0,17.89-11.45A55.55,55.55,0,0,0,222,319.23a56.5,56.5,0,0,0,5.67-25.29v-.85l.8-.29c.15-.06,13.6-5,22.33-11.61A107.46,107.46,0,0,0,239.71,279.11Z"/><path class="cls-5" d="M228.47,292.8l-.8.29v.85A56.5,56.5,0,0,1,222,319.23a55.55,55.55,0,0,1-12.5,16.41,62.32,62.32,0,0,1-17.89,11.45s24.78-12.16,28.32-45.85a64.65,64.65,0,0,0,.42-7.3v-.85l.8-.29c.15-.06,13.6-5,22.32-11.61a106.55,106.55,0,0,0-11.08-2.08c-3.65-.52-8.48-1.08-14.64-1.55-.07-.17-.15-.34-.23-.5,9.89.54,17.17,1.33,22.19,2.05a107.46,107.46,0,0,1,11.09,2.08C242.07,287.8,228.62,292.74,228.47,292.8Z"/><path class="cls-5" d="M185,343.8a63.86,63.86,0,0,1-11.22-8.16,55.55,55.55,0,0,1-12.5-16.41,56.5,56.5,0,0,1-5.67-25.29v-.85l-.8-.29c-.15-.06-13.61-5-22.33-11.61,1-.25,2.38-.57,4.16-.92,8.61,5.83,20.07,10,20.2,10.09l.8.29v.85S155.51,323.18,185,343.8Z"/><path class="cls-6" d="M191.61,291.25c-16,0-28.18.65-37.1,1.45-1.86-.7-14-5.39-22.08-11.51a107.46,107.46,0,0,1,11.09-2.08c8.69-1.24,24.08-2.71,48.09-2.71s39.41,1.47,48.1,2.71a107.46,107.46,0,0,1,11.09,2.08c-8.08,6.12-20.23,10.82-22.08,11.51C219.8,291.9,207.62,291.25,191.61,291.25Z"/><g class="cls-7"><path class="cls-5" d="M229,292.59l-.56.21-.8.29v.85A56.5,56.5,0,0,1,222,319.23a55.55,55.55,0,0,1-12.5,16.41,62.32,62.32,0,0,1-17.89,11.45V291.25c16,0,28.19.65,37.11,1.45Z"/><path class="cls-5" d="M229,292.58c.89-.34,2.77-1.08,5.16-2.13h0C231.81,291.5,229.93,292.24,229,292.58Z"/></g><path class="cls-5" d="M212.16,296.62a1.55,1.55,0,1,1,1.55-1.54A1.54,1.54,0,0,1,212.16,296.62Z"/><path class="cls-5" d="M191.61,296.62a1.55,1.55,0,1,1,1.55-1.54A1.54,1.54,0,0,1,191.61,296.62Z"/><path class="cls-5" d="M171.07,296.62a1.55,1.55,0,1,1,1.54-1.54A1.54,1.54,0,0,1,171.07,296.62Z"/></g></g></svg>